<?xml version="1.0" encoding="UTF-8"?>
<svg width="96px" height="96px" viewBox="0 0 96 96" version="1.1" xmlns="http://www.w3.org/2000/svg" xmlns:xlink="http://www.w3.org/1999/xlink">
    <!-- Generator: Sketch 52.5 (67469) - http://www.bohemiancoding.com/sketch -->
    <title>logo</title>
    <desc>Created with Sketch.</desc>
    <defs>
        <linearGradient x1="0%" y1="0%" x2="100%" y2="100%" id="linearGradient-1">
            <stop stop-color="#6BA3FF" offset="0%"></stop>
            <stop stop-color="#4187F9" offset="100%"></stop>
        </linearGradient>
        <path d="M67.1059019,20.9770115 C67.1185125,21.0829141 67.125,21.1906986 67.125,21.3 C67.125,22.7911688 65.917518,24 64.4280134,24 C64.3267238,24 64.2267384,23.99441 64.1283482,23.9835214 L64.1283482,24 L50.6434152,24 C49.2552002,24 48.1119555,22.9499851 47.9628888,21.6 L47.9464286,21.6 L47.9464286,15.6037533 C47.9464286,15.033925 47.8111612,14.4722358 47.551751,13.9648792 C46.6466258,12.1946285 44.4778051,11.4933058 42.7075545,12.3984309 L23.8366839,22.0470646 C22.6329796,22.6625159 21.875558,23.9004682 21.875558,25.252387 L21.875558,43.690415 C21.875558,44.2602434 22.0108254,44.8219326 22.2702356,45.3292892 C23.1753608,47.0995398 25.3441815,47.8008626 27.1144322,46.8957374 L45.9853027,37.2471038 C46.0152622,37.2317855 46.0449453,37.2160817 46.0743471,37.2 L47.3470982,37.2 L47.3470982,36.9 L67.125,36.9 L67.125,39.6 C67.125,51.695036 57.320036,61.5 45.225,61.5 L21.9,61.5 C9.80496398,61.5 1.48121471e-15,51.695036 0,39.6 L0,21.9 C-1.48121471e-15,9.80496398 9.80496398,2.22182207e-15 21.9,0 L45.225,0 C57.0108347,-2.16502271e-15 66.6221889,9.31005744 67.1059019,20.9770115 Z" id="path-2"></path>
    </defs>
    <g id="Page-1" stroke="none" stroke-width="1" fill="none" fill-rule="evenodd">
        <g id="Mac登录1" transform="translate(-102.000000, -64.000000)">
            <g id="logo" transform="translate(102.000000, 64.000000)">
                <rect id="Background" fill="url(#linearGradient-1)" x="0" y="0" width="96" height="96" rx="48"></rect>
                <g id="Group" transform="translate(14.437500, 17.250000)">
                    <g id="Rectangle-4">
                        <mask id="mask-3" fill="white">
                            <use xlink:href="#path-2"></use>
                        </mask>
                        <use id="Mask" fill="#FFFFFF" xlink:href="#path-2"></use>
                        <path d="M16.8571268,16.568075 L32.0736893,8.8275056 C33.4913832,8.10633365 35.2252765,8.67097626 35.9464485,10.0886702 C36.1522254,10.4931903 36.2594866,10.9406165 36.2594866,11.3944675 L36.2594866,26.1649631 C36.2594866,27.2486397 35.6511716,28.240584 34.6852839,28.731925 L19.4687214,36.4724944 C18.0510275,37.1936663 16.3171342,36.6290237 15.5959622,35.2113298 C15.3901854,34.8068097 15.2829241,34.3593835 15.2829241,33.9055325 L15.2829241,19.1350369 C15.2829241,18.0513603 15.8912391,17.059416 16.8571268,16.568075 Z" fill-opacity="0.4" fill="#A1C5FF" mask="url(#mask-3)"></path>
                    </g>
                    <ellipse id="Oval-Copy-2" fill="#FFFFFF" cx="47.3470982" cy="39.6" rx="2.69698661" ry="2.7"></ellipse>
                    <path d="M10.3926784,12.3986254 L21.0442721,6.98855001 C22.0369711,6.48434597 23.2504508,6.8803494 23.7546549,7.87304842 C23.8983312,8.1559247 23.9732143,8.46871802 23.9732143,8.78599058 L23.9732143,19.103934 C23.9732143,19.8629582 23.546893,20.5576518 22.8701564,20.9013746 L12.2185627,26.31145 C11.2258637,26.815654 10.012384,26.4196506 9.50817996,25.4269516 C9.36450363,25.1440753 9.28962054,24.831282 9.28962054,24.5140094 L9.28962054,14.196066 C9.28962054,13.4370418 9.71594186,12.7423482 10.3926784,12.3986254 Z" id="Rectangle-4" fill-opacity="0.2" fill="#A1C5FF"></path>
                </g>
            </g>
        </g>
    </g>
</svg>